{"title":"The Man Who Shot Liberty Valance 1962 [x264][MP3(@ 128 Kbps)].mk","uid":5262808,"size":1598866599,"categoryP":"video","categoryS":"movies","magnet":"?xt=urn:btih:bbe35fe46890f03766cfd35c393f27cf51bec063&amp;dn=The+Man+Who+Shot+Liberty+Valance+1962+%5Bx264%5D%5BMP3%28%40+128+Kbps%29%5D.mk&amp;tr=udp%3A%2F%2Ftracker.openbittorrent.com%3A80&amp;tr=udp%3A%2F%2Fopen.demonii.com%3A1337&amp;tr=udp%3A%2F%2Ftracker.coppersurfer.tk%3A6969&amp;tr=udp%3A%2F%2Fexodus.desync.com%3A6969","seeders":0,"leechers":1,"uploader":"Zen_Bud","files":-1,"time":1262793032,"description":"General\nComplete name                    : The Man Who Shot Liberty Valance.mkv\nFormat                           : Matroska\nFile size                        : 1.49 GiB\nDuration                         : 1h 58mn\nOverall bit rate                 : 1 803 Kbps\n\n\nVideo\nID                               : 1\nFormat                           : AVC\nCodec ID                         : V_MPEG4/ISO/AVC\nDuration                         : 1h 58mn\nBit rate                         : 1 639 Kbps\nWidth                            : 714 pixels\nHeight                           : 552 pixels\nDisplay aspect ratio             : 16:9\nFrame rate                       : 25.000 fps\nResolution                       : 8 bits\nColorimetry                      : 4:2:0\nScan type                        : Progressive\nBits/(Pixel*Frame)               : 0.166\nStream size                      : 1.35 GiB (91%)\nWriting library                  : x264 core 79\n\nAudio\nID                               : 2\nFormat                           : MPEG Audio\nFormat version                   : Version 1\nFormat profile                   : Layer 3\nMode                             : Joint stereo / MS Stereo\nCodec ID                         : A_MPEG/L3\nCodec ID/Hint                    : MP3\nDuration                         : 1h 58mn\nBit rate mode                    : Constant\nBit rate                         : 128 Kbps\nChannel(s)                       : 2 channels\nSampling rate                    : 48.0 KHz\nStream size                      : 108 MiB (7%)\nWriting library                  : LAME3.98\nLanguage                         : English\n\nText\nLanguage                         : Swedish\n\n\n\n","torrent":{"xt":"urn:btih:bbe35fe46890f03766cfd35c393f27cf51bec063","amp;dn":"The+Man+Who+Shot+Liberty+Valance+1962+%5Bx264%5D%5BMP3%28%40+128+Kbps%29%5D.mk","amp;tr":["udp%3A%2F%2Ftracker.openbittorrent.com%3A80","udp%3A%2F%2Fopen.demonii.com%3A1337","udp%3A%2F%2Ftracker.coppersurfer.tk%3A6969","udp%3A%2F%2Fexodus.desync.com%3A6969"],"infoHash":"bbe35fe46890f03766cfd35c393f27cf51bec063","infoHashBuffer":{"type":"Buffer","data":[187,227,95,228,104,144,240,55,102,207,211,92,57,63,39,207,81,190,192,99]},"announce":[],"urlList":[]}}